<svg width="183" height="50" viewBox="0 0 183 50" fill="none" xmlns="http://www.w3.org/2000/svg">
<path d="M8.84058 33.8235H10.314V35.2941H8.84058V33.8235Z" fill="white"/>
<path d="M10.314 33.8235H11.7874V35.2941H10.314V33.8235Z" fill="white"/>
<path d="M11.7874 33.8235H13.2609V35.2941H11.7874V33.8235Z" fill="white"/>
<path d="M8.84058 35.2941H10.314V36.7647H8.84058V35.2941Z" fill="white"/>
<path d="M10.314 35.2941H11.7874V36.7647H10.314V35.2941Z" fill="white"/>
<path d="M11.7874 35.2941H13.2609V36.7647H11.7874V35.2941Z" fill="white"/>
<path d="M8.84058 36.7647H10.314V38.2353H8.84058V36.7647Z" fill="white"/>
<path d="M10.314 36.7647H11.7874V38.2353H10.314V36.7647Z" fill="white"/>
<path d="M11.7874 36.7647H13.2609V38.2353H11.7874V36.7647Z" fill="white"/>
<path d="M13.2609 29.4118H14.7343V30.8824H13.2609V29.4118Z" fill="white"/>
<path d="M14.7343 29.4118H16.2077V30.8824H14.7343V29.4118Z" fill="white"/>
<path d="M16.2077 29.4118H17.6812V30.8824H16.2077V29.4118Z" fill="white"/>
<path d="M13.2609 30.8824H14.7343V32.3529H13.2609V30.8824Z" fill="white"/>
<path d="M14.7343 30.8824H16.2077V32.3529H14.7343V30.8824Z" fill="white"/>
<path d="M16.2077 30.8824H17.6812V32.3529H16.2077V30.8824Z" fill="white"/>
<path d="M13.2609 32.3529H14.7343V33.8235H13.2609V32.3529Z" fill="white"/>
<path d="M14.7343 32.3529H16.2077V33.8235H14.7343V32.3529Z" fill="white"/>
<path d="M16.2077 32.3529H17.6812V33.8235H16.2077V32.3529Z" fill="white"/>
<path d="M8.84058 38.2353H10.314V39.7059H8.84058V38.2353Z" fill="white"/>
<path d="M10.314 38.2353H11.7874V39.7059H10.314V38.2353Z" fill="white"/>
<path d="M11.7874 38.2353H13.2609V39.7059H11.7874V38.2353Z" fill="white"/>
<path d="M8.84058 39.7059H10.314V41.1765H8.84058V39.7059Z" fill="white"/>
<path d="M10.314 39.7059H11.7874V41.1765H10.314V39.7059Z" fill="white"/>
<path d="M11.7874 39.7059H13.2609V41.1765H11.7874V39.7059Z" fill="white"/>
<path d="M8.84058 41.1765H10.314V42.6471H8.84058V41.1765Z" fill="white"/>
<path d="M10.314 41.1765H11.7874V42.6471H10.314V41.1765Z" fill="white"/>
<path d="M11.7874 41.1765H13.2609V42.6471H11.7874V41.1765Z" fill="white"/>
<path d="M13.2609 36.7647H14.7343V38.2353H13.2609V36.7647Z" fill="white"/>
<path d="M14.7343 36.7647H16.2077V38.2353H14.7343V36.7647Z" fill="white"/>
<path d="M16.2077 36.7647H17.6812V38.2353H16.2077V36.7647Z" fill="white"/>
<path d="M13.2609 38.2353H14.7343V39.7059H13.2609V38.2353Z" fill="white"/>
<path d="M14.7343 38.2353H16.2077V39.7059H14.7343V38.2353Z" fill="white"/>
<path d="M16.2077 38.2353H17.6812V39.7059H16.2077V38.2353Z" fill="white"/>
<path d="M13.2609 39.7059H14.7343V41.1765H13.2609V39.7059Z" fill="white"/>
<path d="M14.7343 39.7059H16.2077V41.1765H14.7343V39.7059Z" fill="white"/>
<path d="M16.2077 39.7059H17.6812V41.1765H16.2077V39.7059Z" fill="white"/>
<path d="M13.2609 41.1765H14.7343V42.6471H13.2609V41.1765Z" fill="white"/>
<path d="M14.7343 41.1765H16.2077V42.6471H14.7343V41.1765Z" fill="white"/>
<path d="M16.2077 41.1765H17.6812V42.6471H16.2077V41.1765Z" fill="white"/>
<path d="M17.6812 36.7647H19.1546V38.2353H17.6812V36.7647Z" fill="white"/>
<path d="M19.1546 36.7647H20.628V38.2353H19.1546V36.7647Z" fill="white"/>
<path d="M20.628 36.7647H22.1014V38.2353H20.628V36.7647Z" fill="white"/>
<path d="M17.6812 38.2353H19.1546V39.7059H17.6812V38.2353Z" fill="white"/>
<path d="M19.1546 38.2353H20.628V39.7059H19.1546V38.2353Z" fill="white"/>
<path d="M20.628 38.2353H22.1014V39.7059H20.628V38.2353Z" fill="white"/>
<path d="M17.6812 39.7059H19.1546V41.1765H17.6812V39.7059Z" fill="white"/>
<path d="M19.1546 39.7059H20.628V41.1765H19.1546V39.7059Z" fill="white"/>
<path d="M20.628 39.7059H22.1014V41.1765H20.628V39.7059Z" fill="white"/>
<path d="M17.6812 41.1765H19.1546V42.6471H17.6812V41.1765Z" fill="white"/>
<path d="M19.1546 41.1765H20.628V42.6471H19.1546V41.1765Z" fill="white"/>
<path d="M20.628 41.1765H22.1014V42.6471H20.628V41.1765Z" fill="white"/>
<path d="M22.1014 36.7647H23.5749V38.2353H22.1014V36.7647Z" fill="white"/>
<path d="M23.5749 36.7647H25.0483V38.2353H23.5749V36.7647Z" fill="white"/>
<path d="M25.0483 36.7647H26.5217V38.2353H25.0483V36.7647Z" fill="white"/>
<path d="M22.1014 38.2353H23.5749V39.7059H22.1014V38.2353Z" fill="white"/>
<path d="M23.5749 38.2353H25.0483V39.7059H23.5749V38.2353Z" fill="white"/>
<path d="M25.0483 38.2353H26.5217V39.7059H25.0483V38.2353Z" fill="white"/>
<path d="M22.1014 39.7059H23.5749V41.1765H22.1014V39.7059Z" fill="white"/>
<path d="M23.5749 39.7059H25.0483V41.1765H23.5749V39.7059Z" fill="white"/>
<path d="M25.0483 39.7059H26.5217V41.1765H25.0483V39.7059Z" fill="white"/>
<path d="M22.1014 41.1765H23.5749V42.6471H22.1014V41.1765Z" fill="white"/>
<path d="M23.5749 41.1765H25.0483V42.6471H23.5749V41.1765Z" fill="white"/>
<path d="M25.0483 41.1765H26.5217V42.6471H25.0483V41.1765Z" fill="white"/>
<path d="M26.5217 36.7647H27.9952V38.2353H26.5217V36.7647Z" fill="white"/>
<path d="M27.9952 36.7647H29.4686V38.2353H27.9952V36.7647Z" fill="white"/>
<path d="M29.4686 36.7647H30.942V38.2353H29.4686V36.7647Z" fill="white"/>
<path d="M26.5217 38.2353H27.9952V39.7059H26.5217V38.2353Z" fill="white"/>
<path d="M27.9952 38.2353H29.4686V39.7059H27.9952V38.2353Z" fill="white"/>
<path d="M29.4686 38.2353H30.942V39.7059H29.4686V38.2353Z" fill="white"/>
<path d="M26.5217 39.7059H27.9952V41.1765H26.5217V39.7059Z" fill="white"/>
<path d="M27.9952 39.7059H29.4686V41.1765H27.9952V39.7059Z" fill="white"/>
<path d="M29.4686 39.7059H30.942V41.1765H29.4686V39.7059Z" fill="white"/>
<path d="M26.5217 41.1765H27.9952V42.6471H26.5217V41.1765Z" fill="white"/>
<path d="M27.9952 41.1765H29.4686V42.6471H27.9952V41.1765Z" fill="white"/>
<path d="M29.4686 41.1765H30.942V42.6471H29.4686V41.1765Z" fill="white"/>
<path d="M32.4155 36.7647H33.8889V38.2353H32.4155V36.7647Z" fill="white"/>
<path d="M33.8889 36.7647H35.3623V38.2353H33.8889V36.7647Z" fill="white"/>
<path d="M35.3623 36.7647H36.8358V38.2353H35.3623V36.7647Z" fill="white"/>
<path d="M32.4155 38.2353H33.8889V39.7059H32.4155V38.2353Z" fill="white"/>
<path d="M33.8889 38.2353H35.3623V39.7059H33.8889V38.2353Z" fill="white"/>
<path d="M35.3623 38.2353H36.8358V39.7059H35.3623V38.2353Z" fill="white"/>
<path d="M32.4155 39.7059H33.8889V41.1765H32.4155V39.7059Z" fill="white"/>
<path d="M33.8889 39.7059H35.3623V41.1765H33.8889V39.7059Z" fill="white"/>
<path d="M35.3623 39.7059H36.8358V41.1765H35.3623V39.7059Z" fill="white"/>
<path d="M32.4155 41.1765H33.8889V42.6471H32.4155V41.1765Z" fill="white"/>
<path d="M33.8889 41.1765H35.3623V42.6471H33.8889V41.1765Z" fill="white"/>
<path d="M35.3623 41.1765H36.8358V42.6471H35.3623V41.1765Z" fill="white"/>
<path d="M36.8358 36.7647H38.3092V38.2353H36.8358V36.7647Z" fill="white"/>
<path d="M38.3092 36.7647H39.7826V38.2353H38.3092V36.7647Z" fill="white"/>
<path d="M39.7826 36.7647H41.256V38.2353H39.7826V36.7647Z" fill="white"/>
<path d="M36.8358 38.2353H38.3092V39.7059H36.8358V38.2353Z" fill="white"/>
<path d="M38.3092 38.2353H39.7826V39.7059H38.3092V38.2353Z" fill="white"/>
<path d="M39.7826 38.2353H41.256V39.7059H39.7826V38.2353Z" fill="white"/>
<path d="M36.8358 39.7059H38.3092V41.1765H36.8358V39.7059Z" fill="white"/>
<path d="M38.3092 39.7059H39.7826V41.1765H38.3092V39.7059Z" fill="white"/>
<path d="M39.7826 39.7059H41.256V41.1765H39.7826V39.7059Z" fill="white"/>
<path d="M36.8358 41.1765H38.3092V42.6471H36.8358V41.1765Z" fill="white"/>
<path d="M38.3092 41.1765H39.7826V42.6471H38.3092V41.1765Z" fill="white"/>
<path d="M39.7826 41.1765H41.256V42.6471H39.7826V41.1765Z" fill="white"/>
<path d="M41.256 36.7647H42.7295V38.2353H41.256V36.7647Z" fill="white"/>
<path d="M42.7295 36.7647H44.2029V38.2353H42.7295V36.7647Z" fill="white"/>
<path d="M44.2029 36.7647H45.6763V38.2353H44.2029V36.7647Z" fill="white"/>
<path d="M41.256 38.2353H42.7295V39.7059H41.256V38.2353Z" fill="white"/>
<path d="M42.7295 38.2353H44.2029V39.7059H42.7295V38.2353Z" fill="white"/>
<path d="M44.2029 38.2353H45.6763V39.7059H44.2029V38.2353Z" fill="white"/>
<path d="M41.256 39.7059H42.7295V41.1765H41.256V39.7059Z" fill="white"/>
<path d="M42.7295 39.7059H44.2029V41.1765H42.7295V39.7059Z" fill="white"/>
<path d="M44.2029 39.7059H45.6763V41.1765H44.2029V39.7059Z" fill="white"/>
<path d="M41.256 41.1765H42.7295V42.6471H41.256V41.1765Z" fill="white"/>
<path d="M42.7295 41.1765H44.2029V42.6471H42.7295V41.1765Z" fill="white"/>
<path d="M44.2029 41.1765H45.6763V42.6471H44.2029V41.1765Z" fill="white"/>
<path d="M45.6763 36.7647H47.1498V38.2353H45.6763V36.7647Z" fill="white"/>
<path d="M47.1498 36.7647H48.6232V38.2353H47.1498V36.7647Z" fill="white"/>
<path d="M48.6232 36.7647H50.0966V38.2353H48.6232V36.7647Z" fill="white"/>
<path d="M45.6763 38.2353H47.1498V39.7059H45.6763V38.2353Z" fill="white"/>
<path d="M47.1498 38.2353H48.6232V39.7059H47.1498V38.2353Z" fill="white"/>
<path d="M48.6232 38.2353H50.0966V39.7059H48.6232V38.2353Z" fill="white"/>
<path d="M45.6763 39.7059H47.1498V41.1765H45.6763V39.7059Z" fill="white"/>
<path d="M47.1498 39.7059H48.6232V41.1765H47.1498V39.7059Z" fill="white"/>
<path d="M48.6232 39.7059H50.0966V41.1765H48.6232V39.7059Z" fill="white"/>
<path d="M45.6763 41.1765H47.1498V42.6471H45.6763V41.1765Z" fill="white"/>
<path d="M47.1498 41.1765H48.6232V42.6471H47.1498V41.1765Z" fill="white"/>
<path d="M48.6232 41.1765H50.0966V42.6471H48.6232V41.1765Z" fill="white"/>
<path d="M50.0966 36.7647H51.57V38.2353H50.0966V36.7647Z" fill="white"/>
<path d="M51.57 36.7647H53.0435V38.2353H51.57V36.7647Z" fill="white"/>
<path d="M53.0435 36.7647H54.5169V38.2353H53.0435V36.7647Z" fill="white"/>
<path d="M50.0966 38.2353H51.57V39.7059H50.0966V38.2353Z" fill="white"/>
<path d="M51.57 38.2353H53.0435V39.7059H51.57V38.2353Z" fill="white"/>
<path d="M53.0435 38.2353H54.5169V39.7059H53.0435V38.2353Z" fill="white"/>
<path d="M50.0966 33.8235H51.57V35.2941H50.0966V33.8235Z" fill="white"/>
<path d="M51.57 33.8235H53.0435V35.2941H51.57V33.8235Z" fill="white"/>
<path d="M53.0435 33.8235H54.5169V35.2941H53.0435V33.8235Z" fill="white"/>
<path d="M50.0966 35.2941H51.57V36.7647H50.0966V35.2941Z" fill="white"/>
<path d="M51.57 35.2941H53.0435V36.7647H51.57V35.2941Z" fill="white"/>
<path d="M53.0435 35.2941H54.5169V36.7647H53.0435V35.2941Z" fill="white"/>
<path d="M41.256 27.9412H42.7295V29.4118H41.256V27.9412Z" fill="white"/>
<path d="M42.7295 27.9412H44.2029V29.4118H42.7295V27.9412Z" fill="white"/>
<path d="M44.2029 27.9412H45.6763V29.4118H44.2029V27.9412Z" fill="white"/>
<path d="M41.256 29.4118H42.7295V30.8824H41.256V29.4118Z" fill="white"/>
<path d="M42.7295 29.4118H44.2029V30.8824H42.7295V29.4118Z" fill="white"/>
<path d="M44.2029 29.4118H45.6763V30.8824H44.2029V29.4118Z" fill="white"/>
<path d="M41.256 25H42.7295V26.4706H41.256V25Z" fill="white"/>
<path d="M42.7295 25H44.2029V26.4706H42.7295V25Z" fill="white"/>
<path d="M44.2029 25H45.6763V26.4706H44.2029V25Z" fill="white"/>
<path d="M41.256 26.4706H42.7295V27.9412H41.256V26.4706Z" fill="white"/>
<path d="M42.7295 26.4706H44.2029V27.9412H42.7295V26.4706Z" fill="white"/>
<path d="M44.2029 26.4706H45.6763V27.9412H44.2029V26.4706Z" fill="white"/>
<path d="M17.6812 27.9412H19.1546V29.4118H17.6812V27.9412Z" fill="white"/>
<path d="M19.1546 27.9412H20.628V29.4118H19.1546V27.9412Z" fill="white"/>
<path d="M20.628 27.9412H22.1014V29.4118H20.628V27.9412Z" fill="white"/>
<path d="M17.6812 29.4118H19.1546V30.8824H17.6812V29.4118Z" fill="white"/>
<path d="M19.1546 29.4118H20.628V30.8824H19.1546V29.4118Z" fill="white"/>
<path d="M20.628 29.4118H22.1014V30.8824H20.628V29.4118Z" fill="white"/>
<path d="M17.6812 25H19.1546V26.4706H17.6812V25Z" fill="white"/>
<path d="M19.1546 25H20.628V26.4706H19.1546V25Z" fill="white"/>
<path d="M20.628 25H22.1014V26.4706H20.628V25Z" fill="white"/>
<path d="M17.6812 26.4706H19.1546V27.9412H17.6812V26.4706Z" fill="white"/>
<path d="M11.7874 25H13.2609V26.4706H11.7874V25Z" fill="white"/>
<path d="M13.2609 23.5294H14.7343V25H13.2609V23.5294Z" fill="white"/>
<path d="M14.7343 25H16.2077V26.4706H14.7343V25Z" fill="white"/>
<path d="M13.2609 25H14.7343V26.4706H13.2609V25Z" fill="white"/>
<path d="M14.7343 26.4706H16.2077V27.9412H14.7343V26.4706Z" fill="white"/>
<path d="M13.2609 26.4706H14.7343V27.9412H13.2609V26.4706Z" fill="white"/>
<path d="M11.7874 23.5294H13.2609V25H11.7874V23.5294Z" fill="white"/>
<path d="M10.314 22.0588H11.7874V23.5294H10.314V22.0588Z" fill="white"/>
<path d="M10.314 23.5294H11.7874V25H10.314V23.5294Z" fill="white"/>
<path d="M8.84058 22.0588H10.314V23.5294H8.84058V22.0588Z" fill="white"/>
<path d="M8.84058 23.5294H10.314V25H8.84058V23.5294Z" fill="white"/>
<path d="M7.36715 22.0588H8.84058V23.5294H7.36715V22.0588Z" fill="white"/>
<path d="M7.36715 23.5294H8.84058V25H7.36715V23.5294Z" fill="white"/>
<path d="M5.89372 22.0588H7.36715V23.5294H5.89372V22.0588Z" fill="white"/>
<path d="M5.89372 23.5294H7.36715V25H5.89372V23.5294Z" fill="white"/>
<path d="M14.7343 47.0588H16.2077V48.5294H14.7343V47.0588Z" fill="white"/>
<path d="M14.7343 48.5294H16.2077V50H14.7343V48.5294Z" fill="white"/>
<path d="M13.2609 47.0588H14.7343V48.5294H13.2609V47.0588Z" fill="white"/>
<path d="M13.2609 48.5294H14.7343V50H13.2609V48.5294Z" fill="white"/>
<path d="M11.7874 47.0588H13.2609V48.5294H11.7874V47.0588Z" fill="white"/>
<path d="M11.7874 48.5294H13.2609V50H11.7874V48.5294Z" fill="white"/>
<path d="M10.314 47.0588H11.7874V48.5294H10.314V47.0588Z" fill="white"/>
<path d="M10.314 48.5294H11.7874V50H10.314V48.5294Z" fill="white"/>
<path d="M8.84058 47.0588H10.314V48.5294H8.84058V47.0588Z" fill="white"/>
<path d="M8.84058 48.5294H10.314V50H8.84058V48.5294Z" fill="white"/>
<path d="M7.36715 47.0588H8.84058V48.5294H7.36715V47.0588Z" fill="white"/>
<path d="M7.36715 48.5294H8.84058V50H7.36715V48.5294Z" fill="white"/>
<path d="M5.89372 47.0588H7.36715V48.5294H5.89372V47.0588Z" fill="white"/>
<path d="M5.89372 48.5294H7.36715V50H5.89372V48.5294Z" fill="white"/>
<path d="M4.42029 48.5294H5.89372V50H4.42029V48.5294Z" fill="white"/>
<path d="M25.0483 47.0588H26.5217V48.5294H25.0483V47.0588Z" fill="white"/>
<path d="M25.0483 48.5294H26.5217V50H25.0483V48.5294Z" fill="white"/>
<path d="M23.5749 47.0588H25.0483V48.5294H23.5749V47.0588Z" fill="white"/>
<path d="M23.5749 48.5294H25.0483V50H23.5749V48.5294Z" fill="white"/>
<path d="M22.1014 47.0588H23.5749V48.5294H22.1014V47.0588Z" fill="white"/>
<path d="M22.1014 48.5294H23.5749V50H22.1014V48.5294Z" fill="white"/>
<path d="M20.628 47.0588H22.1014V48.5294H20.628V47.0588Z" fill="white"/>
<path d="M20.628 48.5294H22.1014V50H20.628V48.5294Z" fill="white"/>
<path d="M19.1546 47.0588H20.628V48.5294H19.1546V47.0588Z" fill="white"/>
<path d="M19.1546 48.5294H20.628V50H19.1546V48.5294Z" fill="white"/>
<path d="M17.6812 47.0588H19.1546V48.5294H17.6812V47.0588Z" fill="white"/>
<path d="M17.6812 48.5294H19.1546V50H17.6812V48.5294Z" fill="white"/>
<path d="M16.2077 47.0588H17.6812V48.5294H16.2077V47.0588Z" fill="white"/>
<path d="M16.2077 48.5294H17.6812V50H16.2077V48.5294Z" fill="white"/>
<path d="M35.3623 47.0588H36.8358V48.5294H35.3623V47.0588Z" fill="white"/>
<path d="M35.3623 48.5294H36.8358V50H35.3623V48.5294Z" fill="white"/>
<path d="M33.8889 47.0588H35.3623V48.5294H33.8889V47.0588Z" fill="white"/>
<path d="M33.8889 48.5294H35.3623V50H33.8889V48.5294Z" fill="white"/>
<path d="M32.4155 47.0588H33.8889V48.5294H32.4155V47.0588Z" fill="white"/>
<path d="M32.4155 48.5294H33.8889V50H32.4155V48.5294Z" fill="white"/>
<path d="M30.942 47.0588H32.4155V48.5294H30.942V47.0588Z" fill="white"/>
<path d="M30.942 48.5294H32.4155V50H30.942V48.5294Z" fill="white"/>
<path d="M29.4686 47.0588H30.942V48.5294H29.4686V47.0588Z" fill="white"/>
<path d="M29.4686 48.5294H30.942V50H29.4686V48.5294Z" fill="white"/>
<path d="M27.9952 47.0588H29.4686V48.5294H27.9952V47.0588Z" fill="white"/>
<path d="M27.9952 48.5294H29.4686V50H27.9952V48.5294Z" fill="white"/>
<path d="M26.5217 47.0588H27.9952V48.5294H26.5217V47.0588Z" fill="white"/>
<path d="M26.5217 48.5294H27.9952V50H26.5217V48.5294Z" fill="white"/>
<path d="M45.6763 47.0588H47.1498V48.5294H45.6763V47.0588Z" fill="white"/>
<path d="M45.6763 48.5294H47.1498V50H45.6763V48.5294Z" fill="white"/>
<path d="M44.2029 47.0588H45.6763V48.5294H44.2029V47.0588Z" fill="white"/>
<path d="M44.2029 48.5294H45.6763V50H44.2029V48.5294Z" fill="white"/>
<path d="M42.7295 47.0588H44.2029V48.5294H42.7295V47.0588Z" fill="white"/>
<path d="M42.7295 48.5294H44.2029V50H42.7295V48.5294Z" fill="white"/>
<path d="M41.256 47.0588H42.7295V48.5294H41.256V47.0588Z" fill="white"/>
<path d="M41.256 48.5294H42.7295V50H41.256V48.5294Z" fill="white"/>
<path d="M39.7826 47.0588H41.256V48.5294H39.7826V47.0588Z" fill="white"/>
<path d="M39.7826 48.5294H41.256V50H39.7826V48.5294Z" fill="white"/>
<path d="M38.3092 47.0588H39.7826V48.5294H38.3092V47.0588Z" fill="white"/>
<path d="M38.3092 48.5294H39.7826V50H38.3092V48.5294Z" fill="white"/>
<path d="M36.8358 47.0588H38.3092V48.5294H36.8358V47.0588Z" fill="white"/>
<path d="M36.8358 48.5294H38.3092V50H36.8358V48.5294Z" fill="white"/>
<path d="M55.9903 47.0588H57.4638V48.5294H55.9903V47.0588Z" fill="white"/>
<path d="M55.9903 48.5294H57.4638V50H55.9903V48.5294Z" fill="white"/>
<path d="M54.5169 47.0588H55.9903V48.5294H54.5169V47.0588Z" fill="white"/>
<path d="M54.5169 48.5294H55.9903V50H54.5169V48.5294Z" fill="white"/>
<path d="M53.0435 47.0588H54.5169V48.5294H53.0435V47.0588Z" fill="white"/>
<path d="M53.0435 48.5294H54.5169V50H53.0435V48.5294Z" fill="white"/>
<path d="M51.57 47.0588H53.0435V48.5294H51.57V47.0588Z" fill="white"/>
<path d="M51.57 48.5294H53.0435V50H51.57V48.5294Z" fill="white"/>
<path d="M50.0966 47.0588H51.57V48.5294H50.0966V47.0588Z" fill="white"/>
<path d="M50.0966 48.5294H51.57V50H50.0966V48.5294Z" fill="white"/>
<path d="M48.6232 47.0588H50.0966V48.5294H48.6232V47.0588Z" fill="white"/>
<path d="M48.6232 48.5294H50.0966V50H48.6232V48.5294Z" fill="white"/>
<path d="M47.1498 47.0588H48.6232V48.5294H47.1498V47.0588Z" fill="white"/>
<path d="M47.1498 48.5294H48.6232V50H47.1498V48.5294Z" fill="white"/>
<path d="M66.3043 47.0588H67.7778V48.5294H66.3043V47.0588Z" fill="white"/>
<path d="M66.3043 48.5294H67.7778V50H66.3043V48.5294Z" fill="white"/>
<path d="M64.8309 47.0588H66.3043V48.5294H64.8309V47.0588Z" fill="white"/>
<path d="M64.8309 48.5294H66.3043V50H64.8309V48.5294Z" fill="white"/>
<path d="M63.3575 47.0588H64.8309V48.5294H63.3575V47.0588Z" fill="white"/>
<path d="M63.3575 48.5294H64.8309V50H63.3575V48.5294Z" fill="white"/>
<path d="M61.8841 47.0588H63.3575V48.5294H61.8841V47.0588Z" fill="white"/>
<path d="M61.8841 48.5294H63.3575V50H61.8841V48.5294Z" fill="white"/>
<path d="M60.4106 47.0588H61.8841V48.5294H60.4106V47.0588Z" fill="white"/>
<path d="M60.4106 48.5294H61.8841V50H60.4106V48.5294Z" fill="white"/>
<path d="M58.9372 47.0588H60.4106V48.5294H58.9372V47.0588Z" fill="white"/>
<path d="M58.9372 48.5294H60.4106V50H58.9372V48.5294Z" fill="white"/>
<path d="M57.4638 47.0588H58.9372V48.5294H57.4638V47.0588Z" fill="white"/>
<path d="M57.4638 48.5294H58.9372V50H57.4638V48.5294Z" fill="white"/>
<path d="M4.42029 23.5294H5.89372V25H4.42029V23.5294Z" fill="white"/>
<path d="M1.47343 32.3529H2.94686V33.8235H1.47343V32.3529Z" fill="white"/>
<path d="M1.47343 33.8235H2.94686V35.2941H1.47343V33.8235Z" fill="white"/>
<path d="M0 32.3529H1.47343V33.8235H0V32.3529Z" fill="white"/>
<path d="M0 33.8235H1.47343V35.2941H0V33.8235Z" fill="white"/>
<path d="M1.47343 29.4118H2.94686V30.8824H1.47343V29.4118Z" fill="white"/>
<path d="M1.47343 30.8824H2.94686V32.3529H1.47343V30.8824Z" fill="white"/>
<path d="M0 30.8824H1.47343V32.3529H0V30.8824Z" fill="white"/>
<path d="M2.94686 26.4706H4.42029V27.9412H2.94686V26.4706Z" fill="white"/>
<path d="M2.94686 27.9412H4.42029V29.4118H2.94686V27.9412Z" fill="white"/>
<path d="M1.47343 26.4706H2.94686V27.9412H1.47343V26.4706Z" fill="white"/>
<path d="M1.47343 27.9412H2.94686V29.4118H1.47343V27.9412Z" fill="white"/>
<path d="M4.42029 25H5.89372V26.4706H4.42029V25Z" fill="white"/>
<path d="M2.94686 23.5294H4.42029V25H2.94686V23.5294Z" fill="white"/>
<path d="M2.94686 25H4.42029V26.4706H2.94686V25Z" fill="white"/>
<path d="M1.47343 42.6471H2.94686V44.1176H1.47343V42.6471Z" fill="white"/>
<path d="M2.94686 44.1176H4.42029V45.5882H2.94686V44.1176Z" fill="white"/>
<path d="M1.47343 44.1176H2.94686V45.5882H1.47343V44.1176Z" fill="white"/>
<path d="M2.94686 45.5882H4.42029V47.0588H2.94686V45.5882Z" fill="white"/>
<path d="M4.42029 47.0588H5.89372V48.5294H4.42029V47.0588Z" fill="white"/>
<path d="M78.0918 47.0588H79.5652V48.5294H78.0918V47.0588Z" fill="white"/>
<path d="M78.0918 48.5294H79.5652V50H78.0918V48.5294Z" fill="white"/>
<path d="M76.6184 47.0588H78.0918V48.5294H76.6184V47.0588Z" fill="white"/>
<path d="M76.6184 48.5294H78.0918V50H76.6184V48.5294Z" fill="white"/>
<path d="M75.1449 47.0588H76.6184V48.5294H75.1449V47.0588Z" fill="white"/>
<path d="M75.1449 48.5294H76.6184V50H75.1449V48.5294Z" fill="white"/>
<path d="M73.6715 47.0588H75.1449V48.5294H73.6715V47.0588Z" fill="white"/>
<path d="M73.6715 48.5294H75.1449V50H73.6715V48.5294Z" fill="white"/>
<path d="M72.1981 47.0588H73.6715V48.5294H72.1981V47.0588Z" fill="white"/>
<path d="M72.1981 48.5294H73.6715V50H72.1981V48.5294Z" fill="white"/>
<path d="M70.7246 47.0588H72.1981V48.5294H70.7246V47.0588Z" fill="white"/>
<path d="M70.7246 48.5294H72.1981V50H70.7246V48.5294Z" fill="white"/>
<path d="M69.2512 47.0588H70.7246V48.5294H69.2512V47.0588Z" fill="white"/>
<path d="M69.2512 48.5294H70.7246V50H69.2512V48.5294Z" fill="white"/>
<path d="M67.7778 48.5294H69.2512V50H67.7778V48.5294Z" fill="white"/>
<path d="M88.4058 47.0588H89.8792V48.5294H88.4058V47.0588Z" fill="white"/>
<path d="M88.4058 48.5294H89.8792V50H88.4058V48.5294Z" fill="white"/>
<path d="M86.9324 47.0588H88.4058V48.5294H86.9324V47.0588Z" fill="white"/>
<path d="M86.9324 48.5294H88.4058V50H86.9324V48.5294Z" fill="white"/>
<path d="M85.4589 47.0588H86.9324V48.5294H85.4589V47.0588Z" fill="white"/>
<path d="M85.4589 48.5294H86.9324V50H85.4589V48.5294Z" fill="white"/>
<path d="M83.9855 47.0588H85.4589V48.5294H83.9855V47.0588Z" fill="white"/>
<path d="M83.9855 48.5294H85.4589V50H83.9855V48.5294Z" fill="white"/>
<path d="M82.5121 47.0588H83.9855V48.5294H82.5121V47.0588Z" fill="white"/>
<path d="M82.5121 48.5294H83.9855V50H82.5121V48.5294Z" fill="white"/>
<path d="M81.0387 47.0588H82.5121V48.5294H81.0387V47.0588Z" fill="white"/>
<path d="M81.0387 48.5294H82.5121V50H81.0387V48.5294Z" fill="white"/>
<path d="M79.5652 47.0588H81.0387V48.5294H79.5652V47.0588Z" fill="white"/>
<path d="M79.5652 48.5294H81.0387V50H79.5652V48.5294Z" fill="white"/>
<path d="M98.7198 47.0588H100.193V48.5294H98.7198V47.0588Z" fill="white"/>
<path d="M98.7198 48.5294H100.193V50H98.7198V48.5294Z" fill="white"/>
<path d="M97.2464 47.0588H98.7198V48.5294H97.2464V47.0588Z" fill="white"/>
<path d="M97.2464 48.5294H98.7198V50H97.2464V48.5294Z" fill="white"/>
<path d="M95.7729 47.0588H97.2464V48.5294H95.7729V47.0588Z" fill="white"/>
<path d="M95.7729 48.5294H97.2464V50H95.7729V48.5294Z" fill="white"/>
<path d="M94.2995 47.0588H95.7729V48.5294H94.2995V47.0588Z" fill="white"/>
<path d="M94.2995 48.5294H95.7729V50H94.2995V48.5294Z" fill="white"/>
<path d="M92.8261 47.0588H94.2995V48.5294H92.8261V47.0588Z" fill="white"/>
<path d="M92.8261 48.5294H94.2995V50H92.8261V48.5294Z" fill="white"/>
<path d="M91.3527 47.0588H92.8261V48.5294H91.3527V47.0588Z" fill="white"/>
<path d="M91.3527 48.5294H92.8261V50H91.3527V48.5294Z" fill="white"/>
<path d="M89.8792 47.0588H91.3527V48.5294H89.8792V47.0588Z" fill="white"/>
<path d="M89.8792 48.5294H91.3527V50H89.8792V48.5294Z" fill="white"/>
<path d="M109.034 47.0588H110.507V48.5294H109.034V47.0588Z" fill="white"/>
<path d="M109.034 48.5294H110.507V50H109.034V48.5294Z" fill="white"/>
<path d="M107.56 47.0588H109.034V48.5294H107.56V47.0588Z" fill="white"/>
<path d="M107.56 48.5294H109.034V50H107.56V48.5294Z" fill="white"/>
<path d="M106.087 47.0588H107.56V48.5294H106.087V47.0588Z" fill="white"/>
<path d="M106.087 48.5294H107.56V50H106.087V48.5294Z" fill="white"/>
<path d="M104.614 47.0588H106.087V48.5294H104.614V47.0588Z" fill="white"/>
<path d="M104.614 48.5294H106.087V50H104.614V48.5294Z" fill="white"/>
<path d="M103.14 47.0588H104.614V48.5294H103.14V47.0588Z" fill="white"/>
<path d="M103.14 48.5294H104.614V50H103.14V48.5294Z" fill="white"/>
<path d="M101.667 47.0588H103.14V48.5294H101.667V47.0588Z" fill="white"/>
<path d="M101.667 48.5294H103.14V50H101.667V48.5294Z" fill="white"/>
<path d="M100.193 47.0588H101.667V48.5294H100.193V47.0588Z" fill="white"/>
<path d="M100.193 48.5294H101.667V50H100.193V48.5294Z" fill="white"/>
<path d="M119.348 47.0588H120.821V48.5294H119.348V47.0588Z" fill="white"/>
<path d="M119.348 48.5294H120.821V50H119.348V48.5294Z" fill="white"/>
<path d="M117.874 47.0588H119.348V48.5294H117.874V47.0588Z" fill="white"/>
<path d="M117.874 48.5294H119.348V50H117.874V48.5294Z" fill="white"/>
<path d="M116.401 47.0588H117.874V48.5294H116.401V47.0588Z" fill="white"/>
<path d="M116.401 48.5294H117.874V50H116.401V48.5294Z" fill="white"/>
<path d="M114.928 47.0588H116.401V48.5294H114.928V47.0588Z" fill="white"/>
<path d="M114.928 48.5294H116.401V50H114.928V48.5294Z" fill="white"/>
<path d="M113.454 47.0588H114.928V48.5294H113.454V47.0588Z" fill="white"/>
<path d="M113.454 48.5294H114.928V50H113.454V48.5294Z" fill="white"/>
<path d="M111.981 47.0588H113.454V48.5294H111.981V47.0588Z" fill="white"/>
<path d="M111.981 48.5294H113.454V50H111.981V48.5294Z" fill="white"/>
<path d="M110.507 47.0588H111.981V48.5294H110.507V47.0588Z" fill="white"/>
<path d="M110.507 48.5294H111.981V50H110.507V48.5294Z" fill="white"/>
<path d="M129.662 47.0588H131.135V48.5294H129.662V47.0588Z" fill="white"/>
<path d="M129.662 48.5294H131.135V50H129.662V48.5294Z" fill="white"/>
<path d="M128.188 47.0588H129.662V48.5294H128.188V47.0588Z" fill="white"/>
<path d="M128.188 48.5294H129.662V50H128.188V48.5294Z" fill="white"/>
<path d="M145.87 47.0588H147.343V48.5294H145.87V47.0588Z" fill="white"/>
<path d="M145.87 48.5294H147.343V50H145.87V48.5294Z" fill="white"/>
<path d="M144.396 47.0588H145.87V48.5294H144.396V47.0588Z" fill="white"/>
<path d="M144.396 48.5294H145.87V50H144.396V48.5294Z" fill="white"/>
<path d="M148.816 47.0588H150.29V48.5294H148.816V47.0588Z" fill="white"/>
<path d="M148.816 48.5294H150.29V50H148.816V48.5294Z" fill="white"/>
<path d="M147.343 47.0588H148.816V48.5294H147.343V47.0588Z" fill="white"/>
<path d="M147.343 48.5294H148.816V50H147.343V48.5294Z" fill="white"/>
<path d="M151.763 47.0588H153.237V48.5294H151.763V47.0588Z" fill="white"/>
<path d="M151.763 48.5294H153.237V50H151.763V48.5294Z" fill="white"/>
<path d="M150.29 47.0588H151.763V48.5294H150.29V47.0588Z" fill="white"/>
<path d="M150.29 48.5294H151.763V50H150.29V48.5294Z" fill="white"/>
<path d="M154.71 47.0588H156.184V48.5294H154.71V47.0588Z" fill="white"/>
<path d="M154.71 48.5294H156.184V50H154.71V48.5294Z" fill="white"/>
<path d="M153.237 47.0588H154.71V48.5294H153.237V47.0588Z" fill="white"/>
<path d="M153.237 48.5294H154.71V50H153.237V48.5294Z" fill="white"/>
<path d="M132.609 47.0588H134.082V48.5294H132.609V47.0588Z" fill="white"/>
<path d="M132.609 48.5294H134.082V50H132.609V48.5294Z" fill="white"/>
<path d="M131.135 47.0588H132.609V48.5294H131.135V47.0588Z" fill="white"/>
<path d="M131.135 48.5294H132.609V50H131.135V48.5294Z" fill="white"/>
<path d="M135.556 47.0588H137.029V48.5294H135.556V47.0588Z" fill="white"/>
<path d="M135.556 48.5294H137.029V50H135.556V48.5294Z" fill="white"/>
<path d="M134.082 47.0588H135.556V48.5294H134.082V47.0588Z" fill="white"/>
<path d="M134.082 48.5294H135.556V50H134.082V48.5294Z" fill="white"/>
<path d="M138.502 47.0588H139.976V48.5294H138.502V47.0588Z" fill="white"/>
<path d="M138.502 48.5294H139.976V50H138.502V48.5294Z" fill="white"/>
<path d="M137.029 47.0588H138.502V48.5294H137.029V47.0588Z" fill="white"/>
<path d="M137.029 48.5294H138.502V50H137.029V48.5294Z" fill="white"/>
<path d="M139.976 47.0588H141.449V48.5294H139.976V47.0588Z" fill="white"/>
<path d="M139.976 48.5294H141.449V50H139.976V48.5294Z" fill="white"/>
<path d="M160.604 47.0588H162.077V48.5294H160.604V47.0588Z" fill="white"/>
<path d="M160.604 48.5294H162.077V50H160.604V48.5294Z" fill="white"/>
<path d="M159.13 47.0588H160.604V48.5294H159.13V47.0588Z" fill="white"/>
<path d="M159.13 48.5294H160.604V50H159.13V48.5294Z" fill="white"/>
<path d="M163.551 47.0588H165.024V48.5294H163.551V47.0588Z" fill="white"/>
<path d="M163.551 48.5294H165.024V50H163.551V48.5294Z" fill="white"/>
<path d="M162.077 47.0588H163.551V48.5294H162.077V47.0588Z" fill="white"/>
<path d="M162.077 48.5294H163.551V50H162.077V48.5294Z" fill="white"/>
<path d="M169.444 47.0588H170.918V48.5294H169.444V47.0588Z" fill="white"/>
<path d="M169.444 48.5294H170.918V50H169.444V48.5294Z" fill="white"/>
<path d="M167.971 47.0588H169.444V48.5294H167.971V47.0588Z" fill="white"/>
<path d="M167.971 48.5294H169.444V50H167.971V48.5294Z" fill="white"/>
<path d="M175.338 47.0588H176.812V48.5294H175.338V47.0588Z" fill="white"/>
<path d="M175.338 48.5294H176.812V50H175.338V48.5294Z" fill="white"/>
<path d="M173.865 47.0588H175.338V48.5294H173.865V47.0588Z" fill="white"/>
<path d="M173.865 48.5294H175.338V50H173.865V48.5294Z" fill="white"/>
<path d="M181.232 47.0588H182.705V48.5294H181.232V47.0588Z" fill="white"/>
<path d="M181.232 48.5294H182.705V50H181.232V48.5294Z" fill="white"/>
<path d="M179.758 47.0588H181.232V48.5294H179.758V47.0588Z" fill="white"/>
<path d="M179.758 48.5294H181.232V50H179.758V48.5294Z" fill="white"/>
<path d="M126.715 47.0588H128.188V48.5294H126.715V47.0588Z" fill="white"/>
<path d="M126.715 48.5294H128.188V50H126.715V48.5294Z" fill="white"/>
<path d="M125.242 47.0588H126.715V48.5294H125.242V47.0588Z" fill="white"/>
<path d="M125.242 48.5294H126.715V50H125.242V48.5294Z" fill="white"/>
<path d="M123.768 47.0588H125.242V48.5294H123.768V47.0588Z" fill="white"/>
<path d="M123.768 48.5294H125.242V50H123.768V48.5294Z" fill="white"/>
<path d="M122.295 47.0588H123.768V48.5294H122.295V47.0588Z" fill="white"/>
<path d="M122.295 48.5294H123.768V50H122.295V48.5294Z" fill="white"/>
<path d="M120.821 47.0588H122.295V48.5294H120.821V47.0588Z" fill="white"/>
<path d="M120.821 48.5294H122.295V50H120.821V48.5294Z" fill="white"/>
<path d="M67.7778 47.0588H69.2512V48.5294H67.7778V47.0588Z" fill="white"/>
<path d="M1.47343 45.5882H2.94686V47.0588H1.47343V45.5882Z" fill="white"/>
<path d="M2.94686 47.0588H4.42029V48.5294H2.94686V47.0588Z" fill="white"/>
<path d="M1.47343 39.7059H2.94686V41.1765H1.47343V39.7059Z" fill="white"/>
<path d="M1.47343 41.1765H2.94686V42.6471H1.47343V41.1765Z" fill="white"/>
<path d="M0 39.7059H1.47343V41.1765H0V39.7059Z" fill="white"/>
<path d="M0 41.1765H1.47343V42.6471H0V41.1765Z" fill="white"/>
<path d="M0 36.7647H1.47343V38.2353H0V36.7647Z" fill="white"/>
<path d="M0 38.2353H1.47343V39.7059H0V38.2353Z" fill="white"/>
<path d="M0 35.2941H1.47343V36.7647H0V35.2941Z" fill="white"/>
<path d="M1.47343 38.2353H2.94686V39.7059H1.47343V38.2353Z" fill="white"/>
<path d="M19.1546 26.4706H20.628V27.9412H19.1546V26.4706Z" fill="white"/>
<path d="M20.628 26.4706H22.1014V27.9412H20.628V26.4706Z" fill="white"/>
<path d="M36.8358 27.9412H38.3092V29.4118H36.8358V27.9412Z" fill="white"/>
<path d="M38.3092 27.9412H39.7826V29.4118H38.3092V27.9412Z" fill="white"/>
<path d="M39.7826 27.9412H41.256V29.4118H39.7826V27.9412Z" fill="white"/>
<path d="M36.8358 29.4118H38.3092V30.8824H36.8358V29.4118Z" fill="white"/>
<path d="M38.3092 29.4118H39.7826V30.8824H38.3092V29.4118Z" fill="white"/>
<path d="M39.7826 29.4118H41.256V30.8824H39.7826V29.4118Z" fill="white"/>
<path d="M36.8358 25H38.3092V26.4706H36.8358V25Z" fill="white"/>
<path d="M38.3092 25H39.7826V26.4706H38.3092V25Z" fill="white"/>
<path d="M39.7826 25H41.256V26.4706H39.7826V25Z" fill="white"/>
<path d="M36.8358 26.4706H38.3092V27.9412H36.8358V26.4706Z" fill="white"/>
<path d="M38.3092 26.4706H39.7826V27.9412H38.3092V26.4706Z" fill="white"/>
<path d="M39.7826 26.4706H41.256V27.9412H39.7826V26.4706Z" fill="white"/>
<path d="M32.4155 27.9412H33.8889V29.4118H32.4155V27.9412Z" fill="white"/>
<path d="M33.8889 27.9412H35.3623V29.4118H33.8889V27.9412Z" fill="white"/>
<path d="M35.3623 27.9412H36.8358V29.4118H35.3623V27.9412Z" fill="white"/>
<path d="M32.4155 29.4118H33.8889V30.8824H32.4155V29.4118Z" fill="white"/>
<path d="M33.8889 29.4118H35.3623V30.8824H33.8889V29.4118Z" fill="white"/>
<path d="M35.3623 29.4118H36.8358V30.8824H35.3623V29.4118Z" fill="white"/>
<path d="M32.4155 25H33.8889V26.4706H32.4155V25Z" fill="white"/>
<path d="M33.8889 25H35.3623V26.4706H33.8889V25Z" fill="white"/>
<path d="M35.3623 25H36.8358V26.4706H35.3623V25Z" fill="white"/>
<path d="M32.4155 26.4706H33.8889V27.9412H32.4155V26.4706Z" fill="white"/>
<path d="M33.8889 26.4706H35.3623V27.9412H33.8889V26.4706Z" fill="white"/>
<path d="M35.3623 26.4706H36.8358V27.9412H35.3623V26.4706Z" fill="white"/>
<path d="M26.5217 27.9412H27.9952V29.4118H26.5217V27.9412Z" fill="white"/>
<path d="M27.9952 27.9412H29.4686V29.4118H27.9952V27.9412Z" fill="white"/>
<path d="M29.4686 27.9412H30.942V29.4118H29.4686V27.9412Z" fill="white"/>
<path d="M26.5217 29.4118H27.9952V30.8824H26.5217V29.4118Z" fill="white"/>
<path d="M27.9952 29.4118H29.4686V30.8824H27.9952V29.4118Z" fill="white"/>
<path d="M29.4686 29.4118H30.942V30.8824H29.4686V29.4118Z" fill="white"/>
<path d="M26.5217 25H27.9952V26.4706H26.5217V25Z" fill="white"/>
<path d="M27.9952 25H29.4686V26.4706H27.9952V25Z" fill="white"/>
<path d="M29.4686 25H30.942V26.4706H29.4686V25Z" fill="white"/>
<path d="M26.5217 26.4706H27.9952V27.9412H26.5217V26.4706Z" fill="white"/>
<path d="M27.9952 26.4706H29.4686V27.9412H27.9952V26.4706Z" fill="white"/>
<path d="M29.4686 26.4706H30.942V27.9412H29.4686V26.4706Z" fill="white"/>
<path d="M22.1014 27.9412H23.5749V29.4118H22.1014V27.9412Z" fill="white"/>
<path d="M23.5749 27.9412H25.0483V29.4118H23.5749V27.9412Z" fill="white"/>
<path d="M25.0483 27.9412H26.5217V29.4118H25.0483V27.9412Z" fill="white"/>
<path d="M22.1014 29.4118H23.5749V30.8824H22.1014V29.4118Z" fill="white"/>
<path d="M23.5749 29.4118H25.0483V30.8824H23.5749V29.4118Z" fill="white"/>
<path d="M25.0483 29.4118H26.5217V30.8824H25.0483V29.4118Z" fill="white"/>
<path d="M22.1014 25H23.5749V26.4706H22.1014V25Z" fill="white"/>
<path d="M23.5749 25H25.0483V26.4706H23.5749V25Z" fill="white"/>
<path d="M25.0483 25H26.5217V26.4706H25.0483V25Z" fill="white"/>
<path d="M22.1014 26.4706H23.5749V27.9412H22.1014V26.4706Z" fill="white"/>
<path d="M23.5749 26.4706H25.0483V27.9412H23.5749V26.4706Z" fill="white"/>
<path d="M25.0483 26.4706H26.5217V27.9412H25.0483V26.4706Z" fill="white"/>
<path d="M45.6763 32.3529H47.1498V33.8235H45.6763V32.3529Z" fill="white"/>
<path d="M47.1498 32.3529H48.6232V33.8235H47.1498V32.3529Z" fill="white"/>
<path d="M48.6232 32.3529H50.0966V33.8235H48.6232V32.3529Z" fill="white"/>
<path d="M45.6763 29.4118H47.1498V30.8824H45.6763V29.4118Z" fill="white"/>
<path d="M47.1498 29.4118H48.6232V30.8824H47.1498V29.4118Z" fill="white"/>
<path d="M48.6232 29.4118H50.0966V30.8824H48.6232V29.4118Z" fill="white"/>
<path d="M45.6763 30.8824H47.1498V32.3529H45.6763V30.8824Z" fill="white"/>
<path d="M47.1498 30.8824H48.6232V32.3529H47.1498V30.8824Z" fill="white"/>
<path d="M48.6232 30.8824H50.0966V32.3529H48.6232V30.8824Z" fill="white"/>
<path d="M50.0966 39.7059H51.57V41.1765H50.0966V39.7059Z" fill="white"/>
<path d="M51.57 39.7059H53.0435V41.1765H51.57V39.7059Z" fill="white"/>
<path d="M53.0435 39.7059H54.5169V41.1765H53.0435V39.7059Z" fill="white"/>
<path d="M50.0966 41.1765H51.57V42.6471H50.0966V41.1765Z" fill="white"/>
<path d="M51.57 41.1765H53.0435V42.6471H51.57V41.1765Z" fill="white"/>
<path d="M53.0435 41.1765H54.5169V42.6471H53.0435V41.1765Z" fill="white"/>
<path d="M8.84058 42.6471H10.314V44.1176H8.84058V42.6471Z" fill="white"/>
<path d="M10.314 42.6471H11.7874V44.1176H10.314V42.6471Z" fill="white"/>
<path d="M11.7874 42.6471H13.2609V44.1176H11.7874V42.6471Z" fill="white"/>
<path d="M13.2609 42.6471H14.7343V44.1176H13.2609V42.6471Z" fill="white"/>
<path d="M14.7343 42.6471H16.2077V44.1176H14.7343V42.6471Z" fill="white"/>
<path d="M16.2077 42.6471H17.6812V44.1176H16.2077V42.6471Z" fill="white"/>
<path d="M17.6812 42.6471H19.1546V44.1176H17.6812V42.6471Z" fill="white"/>
<path d="M19.1546 42.6471H20.628V44.1176H19.1546V42.6471Z" fill="white"/>
<path d="M20.628 42.6471H22.1014V44.1176H20.628V42.6471Z" fill="white"/>
<path d="M22.1014 42.6471H23.5749V44.1176H22.1014V42.6471Z" fill="white"/>
<path d="M23.5749 42.6471H25.0483V44.1176H23.5749V42.6471Z" fill="white"/>
<path d="M25.0483 42.6471H26.5217V44.1176H25.0483V42.6471Z" fill="white"/>
<path d="M26.5217 42.6471H27.9952V44.1176H26.5217V42.6471Z" fill="white"/>
<path d="M27.9952 42.6471H29.4686V44.1176H27.9952V42.6471Z" fill="white"/>
<path d="M29.4686 42.6471H30.942V44.1176H29.4686V42.6471Z" fill="white"/>
<path d="M30.942 36.7647H32.4155V38.2353H30.942V36.7647Z" fill="white"/>
<path d="M30.942 38.2353H32.4155V39.7059H30.942V38.2353Z" fill="white"/>
<path d="M30.942 39.7059H32.4155V41.1765H30.942V39.7059Z" fill="white"/>
<path d="M30.942 41.1765H32.4155V42.6471H30.942V41.1765Z" fill="white"/>
<path d="M30.942 27.9412H32.4155V29.4118H30.942V27.9412Z" fill="white"/>
<path d="M30.942 29.4118H32.4155V30.8824H30.942V29.4118Z" fill="white"/>
<path d="M32.4155 30.8824H33.8889V32.3529H32.4155V30.8824Z" fill="white"/>
<path d="M32.4155 32.3529H33.8889V33.8235H32.4155V32.3529Z" fill="white"/>
<path d="M29.4686 30.8824H30.942V32.3529H29.4686V30.8824Z" fill="white"/>
<path d="M29.4686 32.3529H30.942V33.8235H29.4686V32.3529Z" fill="white"/>
<path d="M30.942 30.8824H32.4155V32.3529H30.942V30.8824Z" fill="white"/>
<path d="M30.942 32.3529H32.4155V33.8235H30.942V32.3529Z" fill="white"/>
<path d="M30.942 25H32.4155V26.4706H30.942V25Z" fill="white"/>
<path d="M30.942 26.4706H32.4155V27.9412H30.942V26.4706Z" fill="white"/>
<path d="M32.4155 22.0588H33.8889V23.5294H32.4155V22.0588Z" fill="white"/>
<path d="M32.4155 23.5294H33.8889V25H32.4155V23.5294Z" fill="white"/>
<path d="M32.4155 19.1176H33.8889V20.5882H32.4155V19.1176Z" fill="white"/>
<path d="M32.4155 20.5882H33.8889V22.0588H32.4155V20.5882Z" fill="white"/>
<path d="M29.4686 22.0588H30.942V23.5294H29.4686V22.0588Z" fill="white"/>
<path d="M29.4686 23.5294H30.942V25H29.4686V23.5294Z" fill="white"/>
<path d="M29.4686 19.1176H30.942V20.5882H29.4686V19.1176Z" fill="white"/>
<path d="M29.4686 20.5882H30.942V22.0588H29.4686V20.5882Z" fill="white"/>
<path d="M25.0483 16.1765H26.5217V17.6471H25.0483V16.1765Z" fill="white"/>
<path d="M25.0483 14.7059H26.5217V16.1765H25.0483V14.7059Z" fill="white"/>
<path d="M36.8358 16.1765H38.3092V17.6471H36.8358V16.1765Z" fill="white"/>
<path d="M36.8358 14.7059H38.3092V16.1765H36.8358V14.7059Z" fill="white"/>
<path d="M30.942 22.0588H32.4155V23.5294H30.942V22.0588Z" fill="white"/>
<path d="M30.942 23.5294H32.4155V25H30.942V23.5294Z" fill="white"/>
<path d="M30.942 19.1176H32.4155V20.5882H30.942V19.1176Z" fill="white"/>
<path d="M32.4155 17.6471H33.8889V19.1176H32.4155V17.6471Z" fill="white"/>
<path d="M29.4686 17.6471H30.942V19.1176H29.4686V17.6471Z" fill="white"/>
<path d="M30.942 17.6471H32.4155V19.1176H30.942V17.6471Z" fill="white"/>
<path d="M27.9952 17.6471H29.4686V19.1176H27.9952V17.6471Z" fill="white"/>
<path d="M25.0483 17.6471H26.5217V19.1176H25.0483V17.6471Z" fill="white"/>
<path d="M26.5217 17.6471H27.9952V19.1176H26.5217V17.6471Z" fill="white"/>
<path d="M23.5749 13.2353H25.0483V14.7059H23.5749V13.2353Z" fill="white"/>
<path d="M25.0483 13.2353H26.5217V14.7059H25.0483V13.2353Z" fill="white"/>
<path d="M22.1014 13.2353H23.5749V14.7059H22.1014V13.2353Z" fill="white"/>
<path d="M38.3092 13.2353H39.7826V14.7059H38.3092V13.2353Z" fill="white"/>
<path d="M39.7826 13.2353H41.256V14.7059H39.7826V13.2353Z" fill="white"/>
<path d="M36.8358 13.2353H38.3092V14.7059H36.8358V13.2353Z" fill="white"/>
<path d="M36.8358 17.6471H38.3092V19.1176H36.8358V17.6471Z" fill="white"/>
<path d="M33.8889 17.6471H35.3623V19.1176H33.8889V17.6471Z" fill="white"/>
<path d="M35.3623 17.6471H36.8358V19.1176H35.3623V17.6471Z" fill="white"/>
<path d="M25.0483 2.94118H26.5217V4.41177H25.0483V2.94118Z" fill="white"/>
<path d="M25.0483 1.47059H26.5217V2.94118H25.0483V1.47059Z" fill="white"/>
<path d="M26.5217 2.94118H27.9952V4.41177H26.5217V2.94118Z" fill="white"/>
<path d="M26.5217 1.47059H27.9952V2.94118H26.5217V1.47059Z" fill="white"/>
<path d="M30.942 2.94118H32.4155V4.41177H30.942V2.94118Z" fill="white"/>
<path d="M30.942 1.47059H32.4155V2.94118H30.942V1.47059Z" fill="white"/>
<path d="M32.4155 2.94118H33.8889V4.41177H32.4155V2.94118Z" fill="white"/>
<path d="M32.4155 1.47059H33.8889V2.94118H32.4155V1.47059Z" fill="white"/>
<path d="M33.8889 2.94118H35.3623V4.41177H33.8889V2.94118Z" fill="white"/>
<path d="M33.8889 1.47059H35.3623V2.94118H33.8889V1.47059Z" fill="white"/>
<path d="M35.3623 2.94118H36.8358V4.41177H35.3623V2.94118Z" fill="white"/>
<path d="M35.3623 1.47059H36.8358V2.94118H35.3623V1.47059Z" fill="white"/>
<path d="M36.8358 2.94118H38.3092V4.41177H36.8358V2.94118Z" fill="white"/>
<path d="M36.8358 1.47059H38.3092V2.94118H36.8358V1.47059Z" fill="white"/>
<path d="M32.4155 0H33.8889V1.47059H32.4155V0Z" fill="white"/>
<path d="M29.4686 0H30.942V1.47059H29.4686V0Z" fill="white"/>
<path d="M30.942 0H32.4155V1.47059H30.942V0Z" fill="white"/>
<path d="M27.9952 0H29.4686V1.47059H27.9952V0Z" fill="white"/>
<path d="M25.0483 0H26.5217V1.47059H25.0483V0Z" fill="white"/>
<path d="M26.5217 0H27.9952V1.47059H26.5217V0Z" fill="white"/>
<path d="M23.5749 4.41177H25.0483V5.88235H23.5749V4.41177Z" fill="white"/>
<path d="M25.0483 4.41177H26.5217V5.88235H25.0483V4.41177Z" fill="white"/>
<path d="M26.5217 4.41177H27.9952V5.88235H26.5217V4.41177Z" fill="white"/>
<path d="M26.5217 8.82353H27.9952V10.2941H26.5217V8.82353Z" fill="white"/>
<path d="M26.5217 7.35294H27.9952V8.82353H26.5217V7.35294Z" fill="white"/>
<path d="M26.5217 5.88235H27.9952V7.35294H26.5217V5.88235Z" fill="white"/>
<path d="M26.5217 10.2941H27.9952V11.7647H26.5217V10.2941Z" fill="white"/>
<path d="M26.5217 14.7059H27.9952V16.1765H26.5217V14.7059Z" fill="white"/>
<path d="M26.5217 13.2353H27.9952V14.7059H26.5217V13.2353Z" fill="white"/>
<path d="M26.5217 11.7647H27.9952V13.2353H26.5217V11.7647Z" fill="white"/>
<path d="M26.5217 16.1765H27.9952V17.6471H26.5217V16.1765Z" fill="white"/>
<path d="M27.9952 8.82353H29.4686V10.2941H27.9952V8.82353Z" fill="white"/>
<path d="M27.9952 7.35294H29.4686V8.82353H27.9952V7.35294Z" fill="white"/>
<path d="M27.9952 5.88235H29.4686V7.35294H27.9952V5.88235Z" fill="white"/>
<path d="M27.9952 10.2941H29.4686V11.7647H27.9952V10.2941Z" fill="white"/>
<path d="M27.9952 14.7059H29.4686V16.1765H27.9952V14.7059Z" fill="white"/>
<path d="M27.9952 13.2353H29.4686V14.7059H27.9952V13.2353Z" fill="white"/>
<path d="M27.9952 11.7647H29.4686V13.2353H27.9952V11.7647Z" fill="white"/>
<path d="M27.9952 16.1765H29.4686V17.6471H27.9952V16.1765Z" fill="white"/>
<path d="M29.4686 8.82353H30.942V10.2941H29.4686V8.82353Z" fill="white"/>
<path d="M29.4686 7.35294H30.942V8.82353H29.4686V7.35294Z" fill="white"/>
<path d="M29.4686 5.88235H30.942V7.35294H29.4686V5.88235Z" fill="white"/>
<path d="M29.4686 10.2941H30.942V11.7647H29.4686V10.2941Z" fill="white"/>
<path d="M29.4686 14.7059H30.942V16.1765H29.4686V14.7059Z" fill="white"/>
<path d="M29.4686 13.2353H30.942V14.7059H29.4686V13.2353Z" fill="white"/>
<path d="M29.4686 11.7647H30.942V13.2353H29.4686V11.7647Z" fill="white"/>
<path d="M29.4686 16.1765H30.942V17.6471H29.4686V16.1765Z" fill="white"/>
<path d="M30.942 8.82353H32.4155V10.2941H30.942V8.82353Z" fill="white"/>
<path d="M30.942 7.35294H32.4155V8.82353H30.942V7.35294Z" fill="white"/>
<path d="M30.942 5.88235H32.4155V7.35294H30.942V5.88235Z" fill="white"/>
<path d="M30.942 10.2941H32.4155V11.7647H30.942V10.2941Z" fill="white"/>
<path d="M30.942 14.7059H32.4155V16.1765H30.942V14.7059Z" fill="white"/>
<path d="M30.942 13.2353H32.4155V14.7059H30.942V13.2353Z" fill="white"/>
<path d="M30.942 11.7647H32.4155V13.2353H30.942V11.7647Z" fill="white"/>
<path d="M30.942 16.1765H32.4155V17.6471H30.942V16.1765Z" fill="white"/>
<path d="M32.4155 8.82353H33.8889V10.2941H32.4155V8.82353Z" fill="white"/>
<path d="M32.4155 7.35294H33.8889V8.82353H32.4155V7.35294Z" fill="white"/>
<path d="M32.4155 5.88235H33.8889V7.35294H32.4155V5.88235Z" fill="white"/>
<path d="M32.4155 10.2941H33.8889V11.7647H32.4155V10.2941Z" fill="white"/>
<path d="M32.4155 14.7059H33.8889V16.1765H32.4155V14.7059Z" fill="white"/>
<path d="M32.4155 13.2353H33.8889V14.7059H32.4155V13.2353Z" fill="white"/>
<path d="M32.4155 11.7647H33.8889V13.2353H32.4155V11.7647Z" fill="white"/>
<path d="M32.4155 16.1765H33.8889V17.6471H32.4155V16.1765Z" fill="white"/>
<path d="M33.8889 8.82353H35.3623V10.2941H33.8889V8.82353Z" fill="white"/>
<path d="M33.8889 7.35294H35.3623V8.82353H33.8889V7.35294Z" fill="white"/>
<path d="M33.8889 5.88235H35.3623V7.35294H33.8889V5.88235Z" fill="white"/>
<path d="M33.8889 10.2941H35.3623V11.7647H33.8889V10.2941Z" fill="white"/>
<path d="M33.8889 14.7059H35.3623V16.1765H33.8889V14.7059Z" fill="white"/>
<path d="M33.8889 13.2353H35.3623V14.7059H33.8889V13.2353Z" fill="white"/>
<path d="M33.8889 11.7647H35.3623V13.2353H33.8889V11.7647Z" fill="white"/>
<path d="M33.8889 16.1765H35.3623V17.6471H33.8889V16.1765Z" fill="white"/>
<path d="M35.3623 8.82353H36.8358V10.2941H35.3623V8.82353Z" fill="white"/>
<path d="M35.3623 7.35294H36.8358V8.82353H35.3623V7.35294Z" fill="white"/>
<path d="M35.3623 5.88235H36.8358V7.35294H35.3623V5.88235Z" fill="white"/>
<path d="M35.3623 10.2941H36.8358V11.7647H35.3623V10.2941Z" fill="white"/>
<path d="M35.3623 14.7059H36.8358V16.1765H35.3623V14.7059Z" fill="white"/>
<path d="M35.3623 13.2353H36.8358V14.7059H35.3623V13.2353Z" fill="white"/>
<path d="M35.3623 11.7647H36.8358V13.2353H35.3623V11.7647Z" fill="white"/>
<path d="M35.3623 16.1765H36.8358V17.6471H35.3623V16.1765Z" fill="white"/>
<path d="M27.9952 4.41177H29.4686V5.88235H27.9952V4.41177Z" fill="white"/>
<path d="M29.4686 4.41177H30.942V5.88235H29.4686V4.41177Z" fill="white"/>
<path d="M30.942 4.41177H32.4155V5.88235H30.942V4.41177Z" fill="white"/>
<path d="M23.5749 8.82353H25.0483V10.2941H23.5749V8.82353Z" fill="white"/>
<path d="M25.0483 8.82353H26.5217V10.2941H25.0483V8.82353Z" fill="white"/>
<path d="M23.5749 10.2941H25.0483V11.7647H23.5749V10.2941Z" fill="white"/>
<path d="M25.0483 10.2941H26.5217V11.7647H25.0483V10.2941Z" fill="white"/>
<path d="M23.5749 11.7647H25.0483V13.2353H23.5749V11.7647Z" fill="white"/>
<path d="M25.0483 11.7647H26.5217V13.2353H25.0483V11.7647Z" fill="white"/>
<path d="M22.1014 7.35294H23.5749V8.82353H22.1014V7.35294Z" fill="white"/>
<path d="M22.1014 5.88235H23.5749V7.35294H22.1014V5.88235Z" fill="white"/>
<path d="M22.1014 10.2941H23.5749V11.7647H22.1014V10.2941Z" fill="white"/>
<path d="M22.1014 8.82353H23.5749V10.2941H22.1014V8.82353Z" fill="white"/>
<path d="M22.1014 11.7647H23.5749V13.2353H22.1014V11.7647Z" fill="white"/>
<path d="M39.7826 7.35294H41.256V8.82353H39.7826V7.35294Z" fill="white"/>
<path d="M39.7826 5.88235H41.256V7.35294H39.7826V5.88235Z" fill="white"/>
<path d="M39.7826 10.2941H41.256V11.7647H39.7826V10.2941Z" fill="white"/>
<path d="M39.7826 8.82353H41.256V10.2941H39.7826V8.82353Z" fill="white"/>
<path d="M39.7826 11.7647H41.256V13.2353H39.7826V11.7647Z" fill="white"/>
<path d="M36.8358 7.35294H38.3092V8.82353H36.8358V7.35294Z" fill="white"/>
<path d="M36.8358 5.88235H38.3092V7.35294H36.8358V5.88235Z" fill="white"/>
<path d="M36.8358 10.2941H38.3092V11.7647H36.8358V10.2941Z" fill="white"/>
<path d="M36.8358 8.82353H38.3092V10.2941H36.8358V8.82353Z" fill="white"/>
<path d="M36.8358 11.7647H38.3092V13.2353H36.8358V11.7647Z" fill="white"/>
<path d="M38.3092 7.35294H39.7826V8.82353H38.3092V7.35294Z" fill="white"/>
<path d="M38.3092 5.88235H39.7826V7.35294H38.3092V5.88235Z" fill="white"/>
<path d="M38.3092 10.2941H39.7826V11.7647H38.3092V10.2941Z" fill="white"/>
<path d="M38.3092 8.82353H39.7826V10.2941H38.3092V8.82353Z" fill="white"/>
<path d="M38.3092 11.7647H39.7826V13.2353H38.3092V11.7647Z" fill="white"/>
<path d="M22.1014 4.41177H23.5749V5.88235H22.1014V4.41177Z" fill="white"/>
<path d="M38.3092 4.41177H39.7826V5.88235H38.3092V4.41177Z" fill="white"/>
<path d="M39.7826 4.41177H41.256V5.88235H39.7826V4.41177Z" fill="white"/>
<path d="M36.8358 4.41177H38.3092V5.88235H36.8358V4.41177Z" fill="white"/>
<path d="M33.8889 4.41177H35.3623V5.88235H33.8889V4.41177Z" fill="white"/>
<path d="M35.3623 4.41177H36.8358V5.88235H35.3623V4.41177Z" fill="white"/>
<path d="M32.4155 4.41177H33.8889V5.88235H32.4155V4.41177Z" fill="white"/>
<path d="M36.8358 0H38.3092V1.47059H36.8358V0Z" fill="white"/>
<path d="M33.8889 0H35.3623V1.47059H33.8889V0Z" fill="white"/>
<path d="M35.3623 0H36.8358V1.47059H35.3623V0Z" fill="white"/>
<path d="M30.942 20.5882H32.4155V22.0588H30.942V20.5882Z" fill="white"/>
<path d="M30.942 42.6471H32.4155V44.1176H30.942V42.6471Z" fill="white"/>
<path d="M32.4155 42.6471H33.8889V44.1176H32.4155V42.6471Z" fill="white"/>
<path d="M33.8889 42.6471H35.3623V44.1176H33.8889V42.6471Z" fill="white"/>
<path d="M35.3623 42.6471H36.8358V44.1176H35.3623V42.6471Z" fill="white"/>
<path d="M36.8358 42.6471H38.3092V44.1176H36.8358V42.6471Z" fill="white"/>
<path d="M38.3092 42.6471H39.7826V44.1176H38.3092V42.6471Z" fill="white"/>
<path d="M39.7826 42.6471H41.256V44.1176H39.7826V42.6471Z" fill="white"/>
<path d="M41.256 42.6471H42.7295V44.1176H41.256V42.6471Z" fill="white"/>
<path d="M42.7295 42.6471H44.2029V44.1176H42.7295V42.6471Z" fill="white"/>
<path d="M44.2029 42.6471H45.6763V44.1176H44.2029V42.6471Z" fill="white"/>
<path d="M45.6763 42.6471H47.1498V44.1176H45.6763V42.6471Z" fill="white"/>
<path d="M47.1498 42.6471H48.6232V44.1176H47.1498V42.6471Z" fill="white"/>
<path d="M48.6232 42.6471H50.0966V44.1176H48.6232V42.6471Z" fill="white"/>
<path d="M50.0966 42.6471H51.57V44.1176H50.0966V42.6471Z" fill="white"/>
<path d="M51.57 42.6471H53.0435V44.1176H51.57V42.6471Z" fill="white"/>
<path d="M53.0435 42.6471H54.5169V44.1176H53.0435V42.6471Z" fill="white"/>
<path d="M58.3478 22.9412V9.70588H61V7.05882H63.6522V4.41177H71.6087V7.05882H74.2609V9.70588H76.913V22.9412H71.6087V17.6471H63.6522V22.9412H58.3478ZM63.6522 15H71.6087V9.70588H68.9565V7.05882H66.3043V9.70588H63.6522V15Z" fill="white"/>
<path d="M87.5217 12.3529H90.1739V15H87.5217V22.9412H82.2174V9.70588H87.5217V12.3529ZM98.1304 9.70588V12.3529H90.1739V9.70588H98.1304Z" fill="white"/>
<path d="M103.435 22.9412V20.2941H100.783V12.3529H103.435V9.70588H119.348V12.3529H106.087V20.2941H119.348V22.9412H103.435Z" fill="white"/>
<path d="M124.652 22.9412V20.2941H122V17.6471H124.652V15H135.261V12.3529H124.652V9.70588H137.913V12.3529H140.565V22.9412H124.652ZM127.304 20.2941H135.261V17.6471H127.304V20.2941Z" fill="white"/>
<path d="M145.87 22.9412V20.2941H143.217V12.3529H145.87V9.70588H156.478V4.41177H161.783V22.9412H145.87ZM148.522 20.2941H156.478V12.3529H148.522V20.2941Z" fill="white"/>
<path d="M167.087 22.9412V20.2941H164.435V12.3529H167.087V9.70588H180.348V12.3529H183V17.6471H169.739V20.2941H180.348V22.9412H167.087ZM169.739 15H177.696V12.3529H169.739V15Z" fill="white"/>
<path d="M63.6522 44.1176V41.4706H61V38.8235H58.3478V30.8824H61V28.2353H63.6522V25.5882H74.2609V28.2353H76.913V30.8824H71.6087V28.2353H66.3043V30.8824H63.6522V38.8235H66.3043V41.4706H71.6087V38.8235H76.913V41.4706H74.2609V44.1176H63.6522Z" fill="white"/>
<path d="M82.2174 44.1176V41.4706H79.5652V33.5294H82.2174V30.8824H95.4783V33.5294H98.1304V38.8235H84.8696V41.4706H95.4783V44.1176H82.2174ZM84.8696 36.1765H92.8261V33.5294H84.8696V36.1765Z" fill="white"/>
<path d="M100.783 44.1176V30.8824H116.696V33.5294H119.348V44.1176H114.043V33.5294H106.087V44.1176H100.783Z" fill="white"/>
<path d="M129.957 44.1176V33.5294H124.652V30.8824H129.957V25.5882H135.261V30.8824H140.565V33.5294H135.261V44.1176H129.957Z" fill="white"/>
<path d="M145.87 44.1176V41.4706H143.217V33.5294H145.87V30.8824H159.13V33.5294H161.783V38.8235H148.522V41.4706H159.13V44.1176H145.87ZM148.522 36.1765H156.478V33.5294H148.522V36.1765Z" fill="white"/>
<path d="M172.391 33.5294H175.043V36.1765H172.391V44.1176H167.087V30.8824H172.391V33.5294ZM183 30.8824V33.5294H175.043V30.8824H183Z" fill="white"/>
</svg>
